# ProBuilder 4.2.3
# https://unity3d.com/unity/features/worldbuilding/probuilder
# 8/17/2020 1:30:54 PM

mtllib ./DisplayEmitter_(2).mtl
o DisplayEmitter (2)

g DisplayEmitter (2)
v 8.981675 1.151672 6.174229
v 9.061437 1.198802 6.26545
v 8.921505 1.285716 6.238999
v 8.904495 1.205333 6.161686
v 9.141197 1.245933 6.35667
v 8.938515 1.366099 6.316312
v 8.735831 1.486265 6.275953
v 8.781574 1.37263 6.212548
v 8.827316 1.258994 6.149143
v 9.259996 1.26524 5.695744
v 9.160758 1.200505 5.748755
v 9.001453 1.300499 5.724368
v 9.03868 1.397582 5.662781
v 9.041406 1.149755 5.798497
v 8.964227 1.203416 5.785954
v 8.887047 1.257077 5.773411
v 8.862262 1.386508 5.703249
v 8.837477 1.515939 5.633088
v 9.01154 1.150714 5.986363
v 8.934361 1.204375 5.97382
v 8.857182 1.258036 5.961277
v 9.10104 1.206647 6.005467
v 9.19054 1.262579 6.024572
v 8.821918 1.379569 5.957899
v 8.786654 1.501102 5.954521

vt 1 0
vt 1 0.5
vt 0.5 0.5
vt 0.5 0
vt 1 1
vt 0.5 1
vt 0 1
vt 0 0.5
vt 0 0

vn -0.2239738 -0.2694374 0.231382
vn -0.2220825 -0.2674159 0.2343211
vn -0.2258651 -0.2714589 0.2284429
vn -0.2230098 -0.2700128 0.2316085
vn -0.2219687 -0.2685891 0.2334679
vn -0.2240508 -0.2714364 0.229749
vn -0.2244027 -0.2729158 0.2282817
vn -0.2247546 -0.2743952 0.2268145
vn -0.2261376 -0.2757491 0.2246997
vn -0.2260014 -0.273604 0.2265713
vn -0.1073264 -0.2333113 -0.318917
vn -0.1096869 -0.2356572 -0.3171782
vn -0.1120473 -0.2380031 -0.3154393
vn -0.1082648 -0.2332484 -0.3187802
vn -0.1115617 -0.2359763 -0.3166221
vn -0.1148586 -0.2387041 -0.3144639
vn -0.1155404 -0.2411777 -0.3129184
vn -0.1162221 -0.2436513 -0.3113729
vn -0.1125603 -0.239724 -0.3143599
vn -0.1134908 -0.2415513 -0.3131392
vn -0.1116299 -0.2378968 -0.3155805
vn -0.2532777 -0.3732507 -0.03836059
vn -0.09624126 -0.3537781 -0.0007541213
vn -0.1132629 -0.3618439 0.009322245
vn -0.07921961 -0.3457123 -0.01083049
vn -0.06356573 -0.3320135 0.01297154
vn -0.04251341 -0.3189457 0.007377047
vn -0.08461805 -0.3450813 0.01856603
vn -0.08304415 -0.3496713 -0.03557905
vn -0.09054301 -0.3543376 -0.0417364
vn -0.07554529 -0.345005 -0.02942171
vn -0.09715528 -0.3575296 -0.03209057
vn -0.08818744 -0.3516209 -0.02146053
vn -0.2891265 -0.3191154 -0.04606786
vn -0.2885883 -0.3200159 -0.0477099
vn -0.2896646 -0.3182149 -0.04442583
vn -0.2887651 -0.3188978 -0.04866576
vn -0.2883855 -0.3196021 -0.04965772
vn -0.2891448 -0.3181935 -0.0476738
vn -0.2891921 -0.3175022 -0.04857904
vn -0.2892394 -0.3168108 -0.04948427
vn -0.2896424 -0.3164875 -0.0476375
vn -0.2896535 -0.3173512 -0.04603167

usemtl displayemitter
f 4/4/3 1/1/1 2/2/2 3/3/1
f 3/3/6 2/2/4 5/5/5 6/6/4
f 7/7/8 8/8/7 3/3/6 6/6/7
f 8/8/9 9/9/10 4/4/3 3/3/10
f 11/2/12 12/3/13 13/4/12 10/1/11
f 14/5/15 15/6/16 12/3/15 11/2/14
f 12/3/17 15/6/16 16/7/17 17/8/18
f 13/4/19 12/3/21 17/8/19 18/9/20
f 14/1/22 19/2/22 20/3/22 15/4/22
f 19/2/22 1/5/22 4/6/22 20/3/22
f 20/3/22 4/6/22 9/7/22 21/8/22
f 15/4/22 20/3/22 21/8/22 16/9/22
f 19/4/25 14/1/23 11/2/24 22/3/23
f 22/3/28 11/2/26 10/5/27 23/6/26
f 2/8/29 22/3/31 23/6/29 5/7/30
f 1/9/33 19/4/25 22/3/33 2/8/32
f 24/3/34 21/4/36 9/1/34 8/2/35
f 25/6/37 24/3/39 8/2/37 7/5/38
f 25/6/40 18/7/41 17/8/40 24/3/39
f 17/8/42 16/9/43 21/4/36 24/3/43

g DisplayEmitter (3)
v 8.981675 1.151672 6.174229
v 9.061437 1.198802 6.26545
v 8.921505 1.285716 6.238999
v 8.904495 1.205333 6.161686
v 9.141197 1.245933 6.35667
v 8.938515 1.366099 6.316312
v 8.735831 1.486265 6.275953
v 8.781574 1.37263 6.212548
v 8.827316 1.258994 6.149143
v 9.259996 1.26524 5.695744
v 9.160758 1.200505 5.748755
v 9.001453 1.300499 5.724368
v 9.03868 1.397582 5.662781
v 9.041406 1.149755 5.798497
v 8.964227 1.203416 5.785954
v 8.887047 1.257077 5.773411
v 8.862262 1.386508 5.703249
v 8.837477 1.515939 5.633088
v 9.01154 1.150714 5.986363
v 8.934361 1.204375 5.97382
v 8.857182 1.258036 5.961277
v 9.10104 1.206647 6.005467
v 9.19054 1.262579 6.024572
v 8.821918 1.379569 5.957899
v 8.786654 1.501102 5.954521

vt 1 0
vt 1 0.5
vt 0.5 0.5
vt 0.5 0
vt 1 1
vt 0.5 1
vt 0 1
vt 0 0.5
vt 0 0

vn 0.2239738 0.2694374 -0.231382
vn 0.2220825 0.2674159 -0.2343211
vn 0.2258651 0.2714589 -0.2284429
vn 0.2230097 0.2700127 -0.2316085
vn 0.2219687 0.268589 -0.2334679
vn 0.2240508 0.2714364 -0.229749
vn 0.2244027 0.2729158 -0.2282817
vn 0.2247546 0.2743952 -0.2268145
vn 0.2261376 0.2757491 -0.2246997
vn 0.2260014 0.273604 -0.2265713
vn 0.1073264 0.2333113 0.318917
vn 0.1096869 0.2356572 0.3171782
vn 0.1120474 0.2380031 0.3154393
vn 0.1082648 0.2332484 0.3187802
vn 0.1115617 0.2359763 0.3166221
vn 0.1148586 0.2387041 0.3144639
vn 0.1155404 0.2411777 0.3129184
vn 0.1162221 0.2436513 0.3113729
vn 0.1125604 0.239724 0.3143599
vn 0.1134908 0.2415513 0.3131392
vn 0.1116299 0.2378968 0.3155805
vn 0.2532777 0.3732507 0.03836059
vn 0.09624124 0.3537781 0.0007541191
vn 0.1132629 0.3618439 -0.009322245
vn 0.07921959 0.3457123 0.01083048
vn 0.06356573 0.3320135 -0.01297154
vn 0.04251342 0.3189457 -0.007377046
vn 0.08461805 0.3450813 -0.01856603
vn 0.08304416 0.3496713 0.03557906
vn 0.09054302 0.3543376 0.04173641
vn 0.07554529 0.345005 0.02942171
vn 0.09715527 0.3575296 0.03209057
vn 0.08818744 0.3516209 0.02146053
vn 0.2891265 0.3191154 0.04606786
vn 0.2885883 0.3200159 0.0477099
vn 0.2896646 0.3182149 0.04442583
vn 0.2887651 0.3188978 0.04866576
vn 0.2883855 0.3196021 0.04965772
vn 0.2891448 0.3181935 0.0476738
vn 0.2891921 0.3175022 0.04857904
vn 0.2892394 0.3168108 0.04948427
vn 0.2896424 0.3164875 0.0476375
vn 0.2896535 0.3173512 0.04603167

usemtl displayemitter
f 28/12/44 27/11/45 26/10/44 29/13/46
f 31/15/47 30/14/48 27/11/47 28/12/49
f 31/15/50 28/12/49 33/17/50 32/16/51
f 28/12/53 29/13/46 34/18/53 33/17/52
f 35/10/54 38/13/55 37/12/56 36/11/55
f 36/11/57 37/12/58 40/15/59 39/14/58
f 37/12/60 42/17/61 41/16/60 40/15/59
f 38/13/62 43/18/63 42/17/62 37/12/64
f 45/12/65 44/11/65 39/10/65 40/13/65
f 29/15/65 26/14/65 44/11/65 45/12/65
f 34/16/65 29/15/65 45/12/65 46/17/65
f 46/17/65 45/12/65 40/13/65 41/18/65
f 47/12/66 36/11/67 39/10/66 44/13/68
f 48/15/69 35/14/70 36/11/69 47/12/71
f 27/17/72 30/16/73 48/15/72 47/12/74
f 27/17/75 47/12/76 44/13/68 26/18/76
f 33/11/78 34/10/77 46/13/79 49/12/77
f 32/14/81 33/11/80 49/12/82 50/15/80
f 50/15/83 49/12/82 42/17/83 43/16/84
f 46/13/79 41/18/86 42/17/85 49/12/86

